<?xml version="1.0" encoding="UTF-8" standalone="no"?>
<svg
   xmlns:dc="http://purl.org/dc/elements/1.1/"
   xmlns:cc="http://creativecommons.org/ns#"
   xmlns:rdf="http://www.w3.org/1999/02/22-rdf-syntax-ns#"
   xmlns:svg="http://www.w3.org/2000/svg"
   xmlns="http://www.w3.org/2000/svg"
   xmlns:sodipodi="http://sodipodi.sourceforge.net/DTD/sodipodi-0.dtd"
   xmlns:inkscape="http://www.inkscape.org/namespaces/inkscape"
   version="1.1"
   id="Layer_1"
   x="0px"
   y="0px"
   width="100px"
   height="100px"
   viewBox="0 0 100 100"
   style="enable-background:new 0 0 100 100;"
   xml:space="preserve"
   inkscape:version="0.48.4 r9939"
   sodipodi:docname="calendar-choes.svg"><metadata
     id="metadata3880"><rdf:RDF><cc:Work
         rdf:about=""><dc:format>image/svg+xml</dc:format><dc:type
           rdf:resource="http://purl.org/dc/dcmitype/StillImage" /><dc:title></dc:title></cc:Work></rdf:RDF></metadata><defs
     id="defs3878" /><sodipodi:namedview
     pagecolor="#ffffff"
     bordercolor="#666666"
     borderopacity="1"
     objecttolerance="10"
     gridtolerance="10"
     guidetolerance="10"
     inkscape:pageopacity="0"
     inkscape:pageshadow="2"
     inkscape:window-width="789"
     inkscape:window-height="776"
     id="namedview3876"
     showgrid="false"
     inkscape:zoom="2.36"
     inkscape:cx="50"
     inkscape:cy="50"
     inkscape:window-x="0"
     inkscape:window-y="22"
     inkscape:window-maximized="0"
     inkscape:current-layer="Layer_1" /><path
     style="fill:#010101;"
     d="M25,18.75V6.25C25,2.795,27.795,0,31.25,0s6.25,2.795,6.25,6.25v12.5c0,3.455-2.795,6.25-6.25,6.25  S25,22.205,25,18.75z"
     id="path3870" /><path
     style="fill:#010101;"
     d="M81.25,12.5v6.396c0,6.909-5.591,12.5-12.5,12.5s-12.5-5.591-12.5-12.5V12.5h-12.5v6.396  c0,6.909-5.591,12.5-12.5,12.5s-12.5-5.591-12.5-12.5V12.5H0V100h100V12.5H81.25z M31.25,87.5h-12.5V75h12.5V87.5z M31.25,62.5  h-12.5V50h12.5V62.5z M56.25,87.5h-12.5V75h12.5V87.5z M56.25,62.524h-12.5v-12.5h12.5V62.524z M68.75,87.5V75h12.5L68.75,87.5z   M81.25,62.5h-12.5V50h12.5V62.5z"
     id="path3872" /><path
     style="fill:#010101;"
     d="M62.5,18.75V6.25C62.5,2.795,65.295,0,68.75,0S75,2.795,75,6.25v12.5c0,3.455-2.795,6.25-6.25,6.25  S62.5,22.205,62.5,18.75z"
     id="path3874" /><path
     style="fill:#ffcd00;fill-opacity:1;stroke:#000000;stroke-width:1.69491529;stroke-miterlimit:4;stroke-opacity:1;stroke-dasharray:none"
     d="m 0.25423729,56.186441 0,-43.644068 9.05574111,0 9.0557406,0 0.187771,4.55735 c 0.153378,3.722618 0.385369,4.988963 1.266591,6.913805 2.187342,4.777785 6.152784,7.349489 11.36636,7.371413 2.642659,0.01112 3.58653,-0.187266 5.603494,-1.177716 4.935451,-2.423603 7.10837,-6.533061 7.10837,-13.443459 l 0,-4.221393 6.108581,0 6.10858,0 0.14142,4.978813 c 0.119796,4.21753 0.292733,5.27037 1.131012,6.885594 4.20453,8.101426 14.395352,9.53193 20.704805,2.906371 2.277115,-2.391201 3.124619,-4.917503 3.399839,-10.13447 l 0.244585,-4.636308 9.046691,0 9.04669,0 0,43.644068 0,43.644067 -49.788135,0 -49.78813571,0 0,-43.644067 z m 31.35593171,25 0,-6.355933 -6.567796,0 -6.567797,0 0,6.355933 0,6.355932 6.567797,0 6.567796,0 0,-6.355932 z m 25,0 0,-6.355933 -6.567796,0 -6.567797,0 0,6.355933 0,6.355932 6.567797,0 6.567796,0 0,-6.355932 z m 18.532835,0.323275 c 3.32389,-3.317958 6.043437,-6.178127 6.043437,-6.355932 0,-0.177801 -2.86017,-0.323276 -6.355933,-0.323276 l -6.355932,0 0,6.355933 c 0,3.495762 0.140623,6.355932 0.312496,6.355932 0.171873,0 3.032042,-2.714695 6.355932,-6.032657 z m -43.532835,-25.323275 0,-6.355933 -6.567796,0 -6.567797,0 0,6.355933 0,6.355932 6.567797,0 6.567796,0 0,-6.355932 z m 25,0 0,-6.355933 -6.567796,0 -6.567797,0 0,6.355933 0,6.355932 6.567797,0 6.567796,0 0,-6.355932 z m 25,0 0,-6.355933 -6.567796,0 -6.567797,0 0,6.355933 0,6.355932 6.567797,0 6.567796,0 0,-6.355932 z"
     id="path3882"
     inkscape:connector-curvature="0" /><path
     style="fill:#ffcd00;fill-opacity:1;stroke:#000000;stroke-width:1.69491529;stroke-miterlimit:4;stroke-opacity:1;stroke-dasharray:none"
     d="m 65.932203,24.027558 c -2.882877,-1.580667 -3.177966,-2.647119 -3.177966,-11.485185 0,-7.1141154 0.0797,-7.9761205 0.861872,-9.322034 2.357879,-4.05727832 8.340684,-3.8103755 10.472216,0.4321751 1.094095,2.177663 1.094095,15.6123889 0,17.7580429 -1.544316,3.028591 -5.241721,4.214953 -8.156122,2.617001 z"
     id="path3884"
     inkscape:connector-curvature="0" /><path
     style="fill:#ffcd00;fill-opacity:1;stroke:#000000;stroke-width:1.69491529;stroke-miterlimit:4;stroke-opacity:1;stroke-dasharray:none"
     d="m 28.652514,24.088325 c -0.811032,-0.407477 -1.907431,-1.388769 -2.436441,-2.180648 -0.91406,-1.368265 -0.961757,-1.831305 -0.960252,-9.322034 0.0014,-7.1177765 0.08325,-8.0161913 0.843585,-9.2632447 2.356152,-3.86439795 7.868631,-4.04049762 10.165101,-0.3247307 0.780129,1.2622756 0.854137,2.0999816 0.854137,9.6681414 l 0,8.286119 -1.109795,1.318916 c -2.148814,2.55372 -4.657363,3.173491 -7.356335,1.817481 l 0,0 z"
     id="path3886"
     inkscape:connector-curvature="0" /></svg>