<?xml version="1.0" encoding="UTF-8" standalone="no"?>
<!-- Generator: Adobe Illustrator 15.1.0, SVG Export Plug-In . SVG Version: 6.00 Build 0)  -->

<svg
   xmlns:dc="http://purl.org/dc/elements/1.1/"
   xmlns:cc="http://creativecommons.org/ns#"
   xmlns:rdf="http://www.w3.org/1999/02/22-rdf-syntax-ns#"
   xmlns:svg="http://www.w3.org/2000/svg"
   xmlns="http://www.w3.org/2000/svg"
   xmlns:sodipodi="http://sodipodi.sourceforge.net/DTD/sodipodi-0.dtd"
   xmlns:inkscape="http://www.inkscape.org/namespaces/inkscape"
   version="1.1"
   id="Layer_1"
   x="0px"
   y="0px"
   width="100px"
   height="64px"
   viewBox="0 0 100 64"
   enable-background="new 0 0 100 64"
   xml:space="preserve"
   inkscape:version="0.48.4 r9939"
   sodipodi:docname="email.svg"><metadata
     id="metadata11"><rdf:RDF><cc:Work
         rdf:about=""><dc:format>image/svg+xml</dc:format><dc:type
           rdf:resource="http://purl.org/dc/dcmitype/StillImage" /><dc:title></dc:title></cc:Work></rdf:RDF></metadata><defs
     id="defs9" /><sodipodi:namedview
     pagecolor="#ffffff"
     bordercolor="#666666"
     borderopacity="1"
     objecttolerance="10"
     gridtolerance="10"
     guidetolerance="10"
     inkscape:pageopacity="0"
     inkscape:pageshadow="2"
     inkscape:window-width="1280"
     inkscape:window-height="763"
     id="namedview7"
     showgrid="false"
     inkscape:zoom="3.53"
     inkscape:cx="0.56657224"
     inkscape:cy="32"
     inkscape:window-x="0"
     inkscape:window-y="22"
     inkscape:window-maximized="0"
     inkscape:current-layer="Layer_1" /><polygon
     points="50.001,45.022 50.001,45.023 50,45.022 0,9.464 0,64 100,64 100,9.465 "
     id="polygon3" /><polygon
     points="99.497,0 0.504,0 50,35.097 "
     id="polygon5" /><path
     style="fill:#ece900;fill-opacity:1;stroke:#000000;stroke-width:0.28328612;stroke-miterlimit:4;stroke-opacity:1;stroke-dasharray:none"
     d="M 25.359115,17.473991 0.91653025,0.13031161 25.429937,0.05792555 c 13.482372,-0.03981232 35.569159,-0.03981232 49.081749,0 L 99.080028,0.13031161 74.792414,17.349816 c -13.35819,9.470727 -24.445813,17.275382 -24.639165,17.34368 -0.193351,0.0683 -11.350714,-7.680481 -24.794134,-17.219505 z"
     id="path2988"
     inkscape:connector-curvature="0" /><path
     style="fill:#ce0000;fill-opacity:1;stroke:#000000;stroke-width:0.28328611999999997;stroke-miterlimit:4;stroke-opacity:1;stroke-dasharray:none"
     d="m 0.08498584,36.957507 c 0,-14.879603 0.06868291,-27.0538243 0.15262872,-27.0538243 0.0839458,0 11.18167744,7.8466613 24.66162644,17.4370243 C 38.37919,36.931071 49.580776,44.843941 49.791654,44.924864 50.006048,45.007133 60.957657,37.40485 74.634278,27.67985 88.086841,18.11417 99.252833,10.193777 99.447592,10.078975 99.729864,9.9125892 99.8017,15.361889 99.8017,36.940788 l 0,27.070543 -49.858357,0 -49.85835716,0 0,-27.053824 z"
     id="path2990"
     inkscape:connector-curvature="0" /><path
     style="fill:#ce0000;fill-opacity:1;stroke:none;stroke-width:0.28328611999999997;stroke-miterlimit:4;stroke-opacity:1;stroke-dasharray:none"
     d="M 45.458391,31.211439 C 40.779708,28.038176 31.135751,21.255752 12.54257,8.0623229 L 1.7634056,0.41359773 25.974923,0.3411898 c 13.316335,-0.0398244 35.023187,-0.0398244 48.237454,0 L 98.238312,0.41359773 87.858533,7.772415 C 68.896422,21.215738 50.703411,34.002629 50.340303,34.141966 50.143201,34.217601 47.94634,32.898864 45.458391,31.211439 l 0,0 z"
     id="path3760"
     inkscape:connector-curvature="0" /><path
     style="fill:#ce0000;fill-opacity:1;stroke:none"
     d="M 45.699414,31.187212 C 41.036575,28.081844 34.999592,23.855159 15.502414,10.045326 L 2.3039754,0.69688385 26.058782,0.62445796 c 13.065142,-0.0398342 34.529606,-0.0398342 47.698804,0 l 23.944,0.0724259 L 83.482521,10.750939 C 61.81368,26.072602 50.470898,33.983003 50.169898,33.983003 c -0.149867,0 -2.161584,-1.258105 -4.470484,-2.795791 z"
     id="path3762"
     inkscape:connector-curvature="0" /><path
     style="fill:#ce0000;fill-opacity:1;stroke:none"
     d="m 0.28403006,42.835694 c 4.0915e-4,-11.490793 0.084247,-23.469602 0.18630623,-26.619576 l 0.18556232,-5.727224 1.72587509,1.209575 c 0.9492311,0.665267 11.9652473,8.447385 24.4800353,17.293596 13.117013,9.2719 22.92059,16.020153 23.14712,15.933227 1.079774,-0.414349 12.261921,-8.203221 38.946643,-27.128098 5.373301,-3.810761 9.928989,-7.025794 10.123748,-7.144517 0.282306,-0.17209 0.354108,5.186996 0.354108,26.429754 l 0,26.645614 -49.575071,0 -49.57507088,0 7.4504e-4,-20.892351 -1.1e-6,0 z"
     id="path3764"
     inkscape:connector-curvature="0" /></svg>