<?xml version="1.0" encoding="UTF-8" standalone="no"?>
<svg
   xmlns:dc="http://purl.org/dc/elements/1.1/"
   xmlns:cc="http://creativecommons.org/ns#"
   xmlns:rdf="http://www.w3.org/1999/02/22-rdf-syntax-ns#"
   xmlns:svg="http://www.w3.org/2000/svg"
   xmlns="http://www.w3.org/2000/svg"
   xmlns:sodipodi="http://sodipodi.sourceforge.net/DTD/sodipodi-0.dtd"
   xmlns:inkscape="http://www.inkscape.org/namespaces/inkscape"
   version="1.1"
   id="Your_Icon"
   x="0px"
   y="0px"
   width="100px"
   height="100px"
   viewBox="0 0 100 100"
   enable-background="new 0 0 100 100"
   xml:space="preserve"
   inkscape:version="0.48.4 r9939"
   sodipodi:docname="sms.svg"><metadata
     id="metadata19"><rdf:RDF><cc:Work
         rdf:about=""><dc:format>image/svg+xml</dc:format><dc:type
           rdf:resource="http://purl.org/dc/dcmitype/StillImage" /><dc:title></dc:title></cc:Work></rdf:RDF></metadata><defs
     id="defs17" /><sodipodi:namedview
     pagecolor="#ffffff"
     bordercolor="#666666"
     borderopacity="1"
     objecttolerance="10"
     gridtolerance="10"
     guidetolerance="10"
     inkscape:pageopacity="0"
     inkscape:pageshadow="2"
     inkscape:window-width="1280"
     inkscape:window-height="778"
     id="namedview15"
     showgrid="false"
     inkscape:zoom="3.337544"
     inkscape:cx="8.8177786"
     inkscape:cy="39.683702"
     inkscape:window-x="0"
     inkscape:window-y="22"
     inkscape:window-maximized="0"
     inkscape:current-layer="Your_Icon" /><g
     id="g3"><g
       id="g5"><path
         d="M39.046,6.532c1.924-0.454,4.054,0.86,4.486,2.794c0.476,2.187,0.963,4.372,1.424,6.561    c0.072,0.202-0.129,0.335-0.238,0.472c-0.707,0.732-1.346,1.526-1.986,2.316c-0.363-1.407-0.633-2.842-0.944-4.264    c-0.479,0.053-0.945,0.18-1.416,0.277c-10.513,2.229-21.024,4.465-31.539,6.69c-1.674,0.376-3.366,0.686-5.028,1.103    c0.023,0.302,0.099,0.595,0.167,0.89c2.934,13.458,5.871,26.916,8.804,40.375c1.876,8.538,3.707,17.088,5.605,25.621    c1.544-0.255,3.064-0.644,4.598-0.948c11.125-2.358,22.244-4.732,33.373-7.072c-0.754-3.674-1.613-7.328-2.373-11.001    c0.87-0.386,1.736-0.781,2.607-1.166c1.35,6.197,2.7,12.395,4.055,18.591c0.235,1.012,0,2.105-0.594,2.953    c-0.543,0.81-1.424,1.357-2.366,1.571c-11.944,2.534-23.887,5.066-35.83,7.602c-0.935,0.21-1.947,0.107-2.789-0.361    c-0.985-0.514-1.694-1.492-1.922-2.572C11.479,70.972,5.809,44.985,0.147,18.994c-0.203-0.819-0.221-1.71,0.11-2.501    c0.455-1.17,1.526-2.083,2.764-2.316C15.03,11.629,27.039,9.079,39.046,6.532z M28.234,11.647    c-2.668,0.575-5.339,1.135-8.007,1.704c-0.627,0.119-1.131,0.739-1.07,1.385c-0.008,0.816,0.854,1.461,1.639,1.278    c2.67-0.549,5.334-1.132,8.004-1.688c0.348-0.068,0.694-0.209,0.929-0.484c0.393-0.42,0.43-1.093,0.146-1.582    C29.556,11.694,28.843,11.466,28.234,11.647z M14.709,14.526c-0.511,0.141-0.917,0.601-0.979,1.127    c-0.103,0.722,0.448,1.451,1.174,1.529c0.849,0.155,1.709-0.634,1.577-1.497C16.425,14.849,15.494,14.265,14.709,14.526z     M37.943,88.053c-1.245,0.232-2.234,1.424-2.179,2.698c-0.026,1.48,1.351,2.788,2.826,2.699c1.559,0.027,2.943-1.489,2.692-3.046    C41.151,88.838,39.458,87.655,37.943,88.053z"
         id="path7" /></g></g><g
     id="g9"><g
       id="g11"><path
         d="M66.254,7.759c5.148-0.464,10.415,0.347,15.166,2.388c3.787,1.63,7.246,4.021,10.104,6.992    c3.2,3.32,5.631,7.376,7.042,11.768c2.501,7.733,1.709,16.476-2.208,23.607c-3.473,6.429-9.327,11.523-16.167,14.093    c-6.329,2.409-13.439,2.667-19.936,0.765c-0.886-0.228-1.724-0.61-2.604-0.844c-3.34,1.743-6.918,3.003-10.561,3.952    c-0.767,0.165-1.556,0.386-2.344,0.254c-0.203-0.023-0.347-0.232-0.31-0.431c0.092-0.465,0.407-0.839,0.681-1.21    c1.214-1.526,2.598-2.936,3.573-4.637c0.447-0.788,0.813-1.666,0.785-2.589c0.024-0.172-0.145-0.263-0.248-0.363    c-3.476-2.872-6.318-6.514-8.223-10.604c-2.146-4.593-3.118-9.736-2.757-14.795c0.36-5.683,2.393-11.242,5.767-15.827    c2.717-3.709,6.28-6.792,10.33-8.967C58.021,9.338,62.101,8.123,66.254,7.759z M52.653,27.791    c-0.026,1.436-0.021,2.875-0.003,4.312c10.833,0.038,21.668,0,32.501,0.019c0.18-0.009,0.374,0.025,0.545-0.058    c-0.005-1.42-0.003-2.839,0-4.259c-4.304-0.035-8.605-0.006-12.909-0.015C66.076,27.789,59.365,27.785,52.653,27.791z     M52.65,36.529c-0.017,1.438-0.023,2.875,0.003,4.312c11.014-0.003,22.03,0.02,33.043-0.013c-0.005-1.418-0.003-2.838,0-4.257    c-0.167-0.088-0.365-0.051-0.545-0.06C74.318,36.529,63.483,36.491,52.65,36.529z M52.654,45.226    c-0.026,1.433-0.025,2.867-0.001,4.299c9.561,0.02,19.122,0.003,28.683,0.008c1.452-0.021,2.908,0.043,4.359-0.031    c-0.002-1.419-0.002-2.84,0-4.26c-1.451-0.056-2.907-0.006-4.359-0.023C71.775,45.224,62.214,45.208,52.654,45.226z"
         id="path13" /></g></g><path
     style="fill:#ffcd00;fill-opacity:1;stroke:#000000;stroke-width:0.324;stroke-miterlimit:4;stroke-opacity:1;stroke-dasharray:none"
     d="m 45.000131,69.78903 c 0.186369,-0.302471 1.156664,-1.616716 2.156213,-2.920543 0.999548,-1.303826 1.988429,-2.967076 2.197513,-3.69611 0.354615,-1.23647 0.224163,-1.485288 -1.941952,-3.703958 -2.949203,-3.020758 -4.555881,-5.362733 -6.299555,-9.18255 -2.05257,-4.496508 -2.560322,-7.054804 -2.495597,-12.574005 0.0838,-7.146115 1.796637,-12.139757 6.154115,-17.941874 5.642674,-7.513395 14.445665,-11.7191425 24.529173,-11.7191425 21.310167,0 36.066849,21.2042915 28.434925,40.8589405 -2.338385,6.022085 -7.360856,11.974449 -12.817017,15.190038 -6.595174,3.886865 -15.673155,5.15289 -23.47436,3.273759 l -4.001786,-0.963941 -2.23785,0.964716 c -5.860892,2.526581 -11.025867,3.748839 -10.203822,2.41467 l 0,0 z m 40.804954,-22.543267 0,-2.330509 -16.737288,0 -16.737289,0 0,2.330509 0,2.330508 16.737289,0 16.737288,0 0,-2.330508 z m 0,-8.474577 0,-2.330508 -16.737288,0 -16.737289,0 0,2.330508 0,2.330509 16.737289,0 16.737288,0 0,-2.330509 z m 0,-8.898305 0,-2.330508 -16.737288,0 -16.737289,0 0,2.330508 0,2.330509 16.737289,0 16.737288,0 0,-2.330509 z"
     id="path3764"
     inkscape:connector-curvature="0" /><path
     style="fill:#ffcd00;fill-opacity:1;stroke:#000000;stroke-width:4;stroke-miterlimit:4;stroke-opacity:1;stroke-dasharray:none"
     d="m 45.296035,70.0051 c 0,-0.10093 0.668957,-1.086534 1.486571,-2.190233 1.59795,-2.157074 2.96723,-4.646301 2.955075,-5.372055 -0.01167,-0.69653 -0.388142,-1.233564 -2.368724,-3.378932 -3.098178,-3.355952 -4.980277,-6.311039 -6.701913,-10.522687 -1.423558,-3.482458 -1.618326,-4.692574 -1.619733,-10.063559 -8.65e-4,-3.304886 0.09325,-5.350098 0.292496,-6.355932 1.606927,-8.112273 7.393931,-16.007821 14.64336,-19.978798 C 57.089734,10.441239 60.591828,9.2632073 64.2579,8.6866961 67.090949,8.2411828 72.768442,8.344654 75.314766,8.8882053 83.98155,10.738261 91.219663,15.964646 95.517099,23.475595 101.1648,33.346498 100.80174,44.901844 94.547381,54.34003 88.62501,63.277219 79.949093,67.863341 68.918917,67.887333 c -3.542428,0.0077 -5.347146,-0.23093 -9.458866,-1.250731 l -2.043611,-0.506864 -1.134355,0.501231 c -4.613228,2.038417 -10.98605,3.995692 -10.98605,3.374131 z m 40.677967,-22.735093 0,-2.542373 -16.949153,0 -16.949153,0 0,2.542373 0,2.542373 16.949153,0 16.949153,0 0,-2.542373 z m 0,-8.474577 0,-2.542373 -16.949153,0 -16.949153,0 0,2.542373 0,2.542373 16.949153,0 16.949153,0 0,-2.542373 z m 0,-8.898305 0,-2.542373 -16.949153,0 -16.949153,0 0,2.542373 0,2.542373 16.949153,0 16.949153,0 0,-2.542373 z"
     id="path3770"
     inkscape:connector-curvature="0" /><path
     style="fill:#ffcd00;fill-opacity:1;stroke:#000000;stroke-width:3.38983059;stroke-miterlimit:4;stroke-opacity:1;stroke-dasharray:none"
     d="M 17.99527,97.557661 C 17.54193,96.508932 13.331372,77.955269 8.6384755,56.327297 1.4695985,23.288367 0.28903106,16.820619 1.2515705,15.85808 3.0522953,14.057355 39.821331,6.5371131 41.536177,7.6188103 c 1.802453,1.136958 3.033085,5.8899277 2.256609,8.7155187 L 43.1888,18.532237 42.616175,16.413593 C 42.301232,15.248339 41.497932,14.335414 40.831064,14.384872 37.864995,14.604847 4.8001155,21.797551 4.1710089,22.359645 3.6327413,22.840576 15.540131,80.503064 17.686997,87.811898 c 0.651082,2.216554 -1.231198,2.496042 33.048476,-4.90715 l 6.032151,-1.30273 -1.104764,-5.263704 c -0.65799,-3.135032 -0.795324,-5.57805 -0.339594,-6.041006 0.970327,-0.985715 1.169618,-0.380272 3.421545,10.394597 1.548888,7.411019 1.653529,8.948098 0.675355,9.920334 -1.08766,1.081058 -35.243924,8.852202 -38.907804,8.852202 -0.946337,0 -2.056312,-0.840839 -2.517092,-1.90678 z m 23.348213,-5.814839 c 0.756606,-2.383853 -1.365199,-4.505658 -3.749054,-3.749052 -1.733561,0.550211 -2.506829,3.691111 -1.224441,4.973493 1.282387,1.282389 4.423284,0.509118 4.973495,-1.224441 z M 16.588624,16.703431 c 0.766383,-0.766382 -1.132893,-2.925872 -2.066071,-2.349137 -1.168424,0.722126 -0.883949,2.906757 0.378508,2.906757 0.62147,0 1.380872,-0.250929 1.687563,-0.55762 l 0,0 z m 8.883494,-1.252516 c 4.755513,-1.151136 5.964847,-2.049441 4.598488,-3.415799 -0.753224,-0.753225 -2.101855,-0.739522 -5.663514,0.05754 -4.754044,1.063908 -6.067,1.953333 -5.1275,3.473478 0.664568,1.075293 1.325112,1.063002 6.192526,-0.115221 z"
     id="path3774"
     inkscape:connector-curvature="0" /></svg>