<svg xmlns="http://www.w3.org/2000/svg" xmlns:xlink="http://www.w3.org/1999/xlink" version="1.1" id="Your_Icon" x="0px" y="0px" width="100px" height="100px" viewBox="0 0 100 100" enable-background="new 0 0 100 100" xml:space="preserve">
<g>
	<g>
		<path d="M39.046,6.532c1.924-0.454,4.054,0.86,4.486,2.794c0.476,2.187,0.963,4.372,1.424,6.561    c0.072,0.202-0.129,0.335-0.238,0.472c-0.707,0.732-1.346,1.526-1.986,2.316c-0.363-1.407-0.633-2.842-0.944-4.264    c-0.479,0.053-0.945,0.18-1.416,0.277c-10.513,2.229-21.024,4.465-31.539,6.69c-1.674,0.376-3.366,0.686-5.028,1.103    c0.023,0.302,0.099,0.595,0.167,0.89c2.934,13.458,5.871,26.916,8.804,40.375c1.876,8.538,3.707,17.088,5.605,25.621    c1.544-0.255,3.064-0.644,4.598-0.948c11.125-2.358,22.244-4.732,33.373-7.072c-0.754-3.674-1.613-7.328-2.373-11.001    c0.87-0.386,1.736-0.781,2.607-1.166c1.35,6.197,2.7,12.395,4.055,18.591c0.235,1.012,0,2.105-0.594,2.953    c-0.543,0.81-1.424,1.357-2.366,1.571c-11.944,2.534-23.887,5.066-35.83,7.602c-0.935,0.21-1.947,0.107-2.789-0.361    c-0.985-0.514-1.694-1.492-1.922-2.572C11.479,70.972,5.809,44.985,0.147,18.994c-0.203-0.819-0.221-1.71,0.11-2.501    c0.455-1.17,1.526-2.083,2.764-2.316C15.03,11.629,27.039,9.079,39.046,6.532z M28.234,11.647    c-2.668,0.575-5.339,1.135-8.007,1.704c-0.627,0.119-1.131,0.739-1.07,1.385c-0.008,0.816,0.854,1.461,1.639,1.278    c2.67-0.549,5.334-1.132,8.004-1.688c0.348-0.068,0.694-0.209,0.929-0.484c0.393-0.42,0.43-1.093,0.146-1.582    C29.556,11.694,28.843,11.466,28.234,11.647z M14.709,14.526c-0.511,0.141-0.917,0.601-0.979,1.127    c-0.103,0.722,0.448,1.451,1.174,1.529c0.849,0.155,1.709-0.634,1.577-1.497C16.425,14.849,15.494,14.265,14.709,14.526z     M37.943,88.053c-1.245,0.232-2.234,1.424-2.179,2.698c-0.026,1.48,1.351,2.788,2.826,2.699c1.559,0.027,2.943-1.489,2.692-3.046    C41.151,88.838,39.458,87.655,37.943,88.053z"/>
	</g>
</g>
<g>
	<g>
		<path d="M66.254,7.759c5.148-0.464,10.415,0.347,15.166,2.388c3.787,1.63,7.246,4.021,10.104,6.992    c3.2,3.32,5.631,7.376,7.042,11.768c2.501,7.733,1.709,16.476-2.208,23.607c-3.473,6.429-9.327,11.523-16.167,14.093    c-6.329,2.409-13.439,2.667-19.936,0.765c-0.886-0.228-1.724-0.61-2.604-0.844c-3.34,1.743-6.918,3.003-10.561,3.952    c-0.767,0.165-1.556,0.386-2.344,0.254c-0.203-0.023-0.347-0.232-0.31-0.431c0.092-0.465,0.407-0.839,0.681-1.21    c1.214-1.526,2.598-2.936,3.573-4.637c0.447-0.788,0.813-1.666,0.785-2.589c0.024-0.172-0.145-0.263-0.248-0.363    c-3.476-2.872-6.318-6.514-8.223-10.604c-2.146-4.593-3.118-9.736-2.757-14.795c0.36-5.683,2.393-11.242,5.767-15.827    c2.717-3.709,6.28-6.792,10.33-8.967C58.021,9.338,62.101,8.123,66.254,7.759z M52.653,27.791    c-0.026,1.436-0.021,2.875-0.003,4.312c10.833,0.038,21.668,0,32.501,0.019c0.18-0.009,0.374,0.025,0.545-0.058    c-0.005-1.42-0.003-2.839,0-4.259c-4.304-0.035-8.605-0.006-12.909-0.015C66.076,27.789,59.365,27.785,52.653,27.791z     M52.65,36.529c-0.017,1.438-0.023,2.875,0.003,4.312c11.014-0.003,22.03,0.02,33.043-0.013c-0.005-1.418-0.003-2.838,0-4.257    c-0.167-0.088-0.365-0.051-0.545-0.06C74.318,36.529,63.483,36.491,52.65,36.529z M52.654,45.226    c-0.026,1.433-0.025,2.867-0.001,4.299c9.561,0.02,19.122,0.003,28.683,0.008c1.452-0.021,2.908,0.043,4.359-0.031    c-0.002-1.419-0.002-2.84,0-4.26c-1.451-0.056-2.907-0.006-4.359-0.023C71.775,45.224,62.214,45.208,52.654,45.226z"/>
	</g>
</g>
</svg>