<?xml version="1.0" encoding="UTF-8" standalone="no"?>
<svg
   xmlns:dc="http://purl.org/dc/elements/1.1/"
   xmlns:cc="http://creativecommons.org/ns#"
   xmlns:rdf="http://www.w3.org/1999/02/22-rdf-syntax-ns#"
   xmlns:svg="http://www.w3.org/2000/svg"
   xmlns="http://www.w3.org/2000/svg"
   xmlns:sodipodi="http://sodipodi.sourceforge.net/DTD/sodipodi-0.dtd"
   xmlns:inkscape="http://www.inkscape.org/namespaces/inkscape"
   version="1.1"
   x="0px"
   y="0px"
   width="100px"
   height="100px"
   viewBox="0 0 100 100"
   enable-background="new 0 0 100 100"
   xml:space="preserve"
   id="svg2"
   inkscape:version="0.48.4 r9939"
   sodipodi:docname="icon_6668_yellow.svg"><metadata
     id="metadata12"><rdf:RDF><cc:Work
         rdf:about=""><dc:format>image/svg+xml</dc:format><dc:type
           rdf:resource="http://purl.org/dc/dcmitype/StillImage" /><dc:title></dc:title></cc:Work></rdf:RDF></metadata><defs
     id="defs10" /><sodipodi:namedview
     pagecolor="#ffffff"
     bordercolor="#666666"
     borderopacity="1"
     objecttolerance="10"
     gridtolerance="10"
     guidetolerance="10"
     inkscape:pageopacity="0"
     inkscape:pageshadow="2"
     inkscape:window-width="1280"
     inkscape:window-height="778"
     id="namedview8"
     showgrid="false"
     inkscape:zoom="1.18"
     inkscape:cx="-174.62342"
     inkscape:cy="16.146967"
     inkscape:window-x="0"
     inkscape:window-y="22"
     inkscape:window-maximized="0"
     inkscape:current-layer="svg2" /><g
     id="Captions" /><g
     id="Your_Icon"><polygon
       points="50,4.826 64.682,34.567 97.5,39.336 73.752,62.485 79.36,95.174 50,79.741 20.646,95.174 26.252,62.485    2.5,39.336 35.323,34.567  "
       id="polygon6" /></g><path
     style="fill:#ece900;fill-opacity:1;stroke-width:1;stroke-miterlimit:4;stroke-dasharray:none;stroke:#000000;stroke-opacity:1"
     d="m 21.121686,93.961864 c 0.011,-0.291313 1.23268,-7.489406 2.714854,-15.995762 L 26.531402,62.5 14.812311,50.975119 C 8.366811,44.636436 3.2271072,39.440462 3.3907466,39.42851 3.9367547,39.388631 32.732519,35.187716 34.174194,34.937619 35.572606,34.695026 35.7032,34.468532 42.781493,20.009682 L 49.968835,5.3280747 57.15836,19.908601 c 3.954237,8.01929 7.24939,14.640393 7.322564,14.713565 0.07317,0.07317 7.265445,1.179914 15.982834,2.459428 8.71739,1.279515 15.978195,2.373789 16.135119,2.43172 0.156928,0.05793 -4.933258,5.158296 -11.311521,11.334144 -7.556449,7.316644 -11.597398,11.524072 -11.598441,12.076271 -8.47e-4,0.466102 1.198356,7.711864 2.664962,16.101695 1.46661,8.38983 2.611924,15.322712 2.54514,15.406402 -0.06678,0.08369 -6.510309,-3.205504 -14.318945,-7.309322 -7.808636,-4.103818 -14.368055,-7.461487 -14.576483,-7.461487 -0.208432,0 -6.725807,3.336864 -14.483059,7.415254 -7.757252,4.07839 -14.174911,7.415254 -14.261465,7.415254 -0.08655,0 -0.148374,-0.238347 -0.137379,-0.529661 l 0,0 z"
     id="path2989"
     inkscape:connector-curvature="0" /></svg>