<?xml version="1.0" encoding="UTF-8" standalone="no"?>
<svg
   xmlns:dc="http://purl.org/dc/elements/1.1/"
   xmlns:cc="http://creativecommons.org/ns#"
   xmlns:rdf="http://www.w3.org/1999/02/22-rdf-syntax-ns#"
   xmlns:svg="http://www.w3.org/2000/svg"
   xmlns="http://www.w3.org/2000/svg"
   xmlns:sodipodi="http://sodipodi.sourceforge.net/DTD/sodipodi-0.dtd"
   xmlns:inkscape="http://www.inkscape.org/namespaces/inkscape"
   version="1.1"
   id="Layer_1"
   x="0px"
   y="0px"
   width="100px"
   height="100px"
   viewBox="0 0 100 100"
   style="enable-background:new 0 0 100 100;"
   xml:space="preserve"
   inkscape:version="0.48.4 r9939"
   sodipodi:docname="calendar.svg"><metadata
     id="metadata3798"><rdf:RDF><cc:Work
         rdf:about=""><dc:format>image/svg+xml</dc:format><dc:type
           rdf:resource="http://purl.org/dc/dcmitype/StillImage" /><dc:title></dc:title></cc:Work></rdf:RDF></metadata><defs
     id="defs3796" /><sodipodi:namedview
     pagecolor="#ffffff"
     bordercolor="#666666"
     borderopacity="1"
     objecttolerance="10"
     gridtolerance="10"
     guidetolerance="10"
     inkscape:pageopacity="0"
     inkscape:pageshadow="2"
     inkscape:window-width="1280"
     inkscape:window-height="763"
     id="namedview3794"
     showgrid="false"
     inkscape:zoom="2.36"
     inkscape:cx="-23.940678"
     inkscape:cy="50"
     inkscape:window-x="0"
     inkscape:window-y="22"
     inkscape:window-maximized="0"
     inkscape:current-layer="Layer_1" /><path
     style="fill:#010101;"
     d="M25,18.75V6.25C25,2.795,27.795,0,31.25,0s6.25,2.795,6.25,6.25v12.5c0,3.455-2.795,6.25-6.25,6.25  S25,22.205,25,18.75z"
     id="path3788" /><path
     style="fill:#010101;"
     d="M81.25,12.5v6.396c0,6.909-5.591,12.5-12.5,12.5s-12.5-5.591-12.5-12.5V12.5h-12.5v6.396  c0,6.909-5.591,12.5-12.5,12.5s-12.5-5.591-12.5-12.5V12.5H0V100h100V12.5H81.25z M31.25,87.5h-12.5V75h12.5V87.5z M31.25,62.5  h-12.5V50h12.5V62.5z M56.25,87.5h-12.5V75h12.5V87.5z M56.25,62.524h-12.5v-12.5h12.5V62.524z M68.75,87.5V75h12.5L68.75,87.5z   M81.25,62.5h-12.5V50h12.5V62.5z"
     id="path3790" /><path
     style="fill:#010101;"
     d="M62.5,18.75V6.25C62.5,2.795,65.295,0,68.75,0S75,2.795,75,6.25v12.5c0,3.455-2.795,6.25-6.25,6.25  S62.5,22.205,62.5,18.75z"
     id="path3792" /><path
     style="fill:#d12e2e;fill-opacity:1;stroke:#000000;stroke-width:0.01779661;stroke-miterlimit:4;stroke-opacity:1;stroke-dasharray:none"
     d="m 0.21186441,56.355932 0,-43.644068 9.05016359,0 9.050164,0 0.217188,4.582225 c 0.162514,3.428699 0.449396,5.108738 1.139601,6.673729 2.934342,6.653416 10.613327,9.388901 17.222553,6.13519 4.996254,-2.459649 6.964398,-6.181428 6.964398,-13.169751 l 0,-4.221393 6.144068,0 6.144068,0 0,4.221393 c 0,6.988323 1.968144,10.710102 6.964398,13.169751 6.609225,3.253711 14.288212,0.518226 17.222555,-6.13519 0.690204,-1.564991 0.977085,-3.24503 1.139598,-6.673729 l 0.21719,-4.582225 9.050161,0 9.050166,0 0,43.644068 0,43.644068 L 50,100 l -49.78813559,0 0,-43.644068 z m 31.35593259,25 0,-6.355932 L 25,75 l -6.567797,0 0,6.355932 0,6.355932 6.567797,0 6.567797,0 0,-6.355932 z m 25,0 0,-6.355932 L 50,75 l -6.567797,0 0,6.355932 0,6.355932 6.567797,0 6.567797,0 0,-6.355932 z m 18.855932,0 L 81.769064,75 l -6.668428,0 -6.668433,0 0,6.355932 c 0,3.495763 0.145394,6.355932 0.323094,6.355932 0.177703,0 3.178495,-2.860169 6.668432,-6.355932 l 0,0 z m -43.855932,-25 0,-6.355932 L 25,50 l -6.567797,0 0,6.355932 0,6.355932 6.567797,0 6.567797,0 0,-6.355932 z m 25,0 0,-6.355932 L 50,50 l -6.567797,0 0,6.355932 0,6.355932 6.567797,0 6.567797,0 0,-6.355932 z m 25,0 0,-6.355932 L 75,50 l -6.567797,0 0,6.355932 0,6.355932 6.567797,0 6.567797,0 0,-6.355932 z"
     id="path4344"
     inkscape:connector-curvature="0" /><path
     style="fill:#d12e2e;fill-opacity:1;stroke:#000000;stroke-width:0.01779661;stroke-miterlimit:4;stroke-opacity:1;stroke-dasharray:none"
     d="M 65.592605,23.745968 C 63.00621,22.16895 62.711864,21.019869 62.711864,12.5 c 0,-6.5424657 0.108378,-7.8256237 0.762097,-9.0229756 1.693219,-3.10130062 6.1917,-4.09996317 8.75451,-1.9435007 2.377743,2.000739 2.559665,2.7801517 2.559665,10.9664763 0,8.186325 -0.181922,8.965737 -2.559665,10.966476 -1.658706,1.39571 -4.601902,1.519672 -6.635866,0.279492 l 0,0 z"
     id="path4346"
     inkscape:connector-curvature="0" /><path
     style="fill:#d12e2e;fill-opacity:1;stroke:#000000;stroke-width:0.01779661;stroke-miterlimit:4;stroke-opacity:1;stroke-dasharray:none"
     d="M 27.771529,23.466476 C 25.393786,21.465737 25.211864,20.686325 25.211864,12.5 c 0,-8.1863246 0.181922,-8.9657373 2.559665,-10.9664763 2.56281,-2.15646247 7.061291,-1.15779992 8.75451,1.9435007 0.653719,1.1973519 0.762097,2.4805099 0.762097,9.0229756 0,6.542466 -0.108378,7.825624 -0.762097,9.022976 -1.693219,3.1013 -6.1917,4.099963 -8.75451,1.9435 l 0,0 z"
     id="path4348"
     inkscape:connector-curvature="0" /></svg>