<?xml version="1.0" encoding="UTF-8" standalone="no"?>
<!-- Generator: Adobe Illustrator 15.1.0, SVG Export Plug-In . SVG Version: 6.00 Build 0)  -->

<svg
   xmlns:dc="http://purl.org/dc/elements/1.1/"
   xmlns:cc="http://creativecommons.org/ns#"
   xmlns:rdf="http://www.w3.org/1999/02/22-rdf-syntax-ns#"
   xmlns:svg="http://www.w3.org/2000/svg"
   xmlns="http://www.w3.org/2000/svg"
   xmlns:sodipodi="http://sodipodi.sourceforge.net/DTD/sodipodi-0.dtd"
   xmlns:inkscape="http://www.inkscape.org/namespaces/inkscape"
   version="1.1"
   id="Layer_1"
   x="0px"
   y="0px"
   width="100px"
   height="64px"
   viewBox="0 0 100 64"
   enable-background="new 0 0 100 64"
   xml:space="preserve"
   inkscape:version="0.48.4 r9939"
   sodipodi:docname="email.svg"><metadata
     id="metadata11"><rdf:RDF><cc:Work
         rdf:about=""><dc:format>image/svg+xml</dc:format><dc:type
           rdf:resource="http://purl.org/dc/dcmitype/StillImage" /><dc:title></dc:title></cc:Work></rdf:RDF></metadata><defs
     id="defs9" /><sodipodi:namedview
     pagecolor="#ffffff"
     bordercolor="#666666"
     borderopacity="1"
     objecttolerance="10"
     gridtolerance="10"
     guidetolerance="10"
     inkscape:pageopacity="0"
     inkscape:pageshadow="2"
     inkscape:window-width="1280"
     inkscape:window-height="778"
     id="namedview7"
     showgrid="false"
     inkscape:zoom="3.53"
     inkscape:cx="0.56657224"
     inkscape:cy="32"
     inkscape:window-x="0"
     inkscape:window-y="22"
     inkscape:window-maximized="0"
     inkscape:current-layer="Layer_1" /><polygon
     points="50.001,45.022 50.001,45.023 50,45.022 0,9.464 0,64 100,64 100,9.465 "
     id="polygon3" /><polygon
     points="99.497,0 0.504,0 50,35.097 "
     id="polygon5" /><path
     style="fill:#ffff00;fill-opacity:1;stroke:none;stroke-width:1.13314450000000000;stroke-miterlimit:4;stroke-opacity:1;stroke-dasharray:none"
     d="M 0,36.819679 0,9.628027 3.4852241,12.102965 C 5.4020975,13.464181 16.558881,21.398017 28.278076,29.733711 39.997272,38.069405 49.772136,44.889518 50,44.889518 c 0.227864,0 10.002728,-6.820113 21.721924,-15.155807 11.719195,-8.335694 22.87598,-16.26953 24.792852,-17.630746 L 100,9.628027 l 0,27.191652 0,27.191652 -50,0 -50,0 0,-27.191652 z"
     id="path3764"
     inkscape:connector-curvature="0" /><path
     style="fill:#ffff00;fill-opacity:1;stroke:none"
     d="M 25.319654,17.465354 0.92259365,0.13031161 25.554537,0.05792989 c 13.547568,-0.03980995 35.632837,-0.03980995 49.07837,0 L 99.079334,0.13031161 74.717708,17.410765 C 61.318813,26.915014 50.212224,34.715782 50.036397,34.745807 49.860572,34.77583 38.738037,26.999627 25.319654,17.465354 l 0,0 z"
     id="path3766"
     inkscape:connector-curvature="0" /></svg>