<?xml version="1.0" encoding="UTF-8" standalone="no"?>
<!-- Generator: Adobe Illustrator 15.1.0, SVG Export Plug-In . SVG Version: 6.00 Build 0)  -->

<svg
   xmlns:dc="http://purl.org/dc/elements/1.1/"
   xmlns:cc="http://creativecommons.org/ns#"
   xmlns:rdf="http://www.w3.org/1999/02/22-rdf-syntax-ns#"
   xmlns:svg="http://www.w3.org/2000/svg"
   xmlns="http://www.w3.org/2000/svg"
   xmlns:sodipodi="http://sodipodi.sourceforge.net/DTD/sodipodi-0.dtd"
   xmlns:inkscape="http://www.inkscape.org/namespaces/inkscape"
   version="1.1"
   id="Layer_1"
   x="0px"
   y="0px"
   width="105.09375"
   height="67.029877"
   viewBox="0 0 105.09375 67.029877"
   enable-background="new 0 0 100 64"
   xml:space="preserve"
   inkscape:version="0.48.4 r9939"
   sodipodi:docname="email-chosen.svg"><metadata
     id="metadata11"><rdf:RDF><cc:Work
         rdf:about=""><dc:format>image/svg+xml</dc:format><dc:type
           rdf:resource="http://purl.org/dc/dcmitype/StillImage" /></cc:Work></rdf:RDF></metadata><defs
     id="defs9" /><sodipodi:namedview
     pagecolor="#ffffff"
     bordercolor="#666666"
     borderopacity="1"
     objecttolerance="10"
     gridtolerance="10"
     guidetolerance="10"
     inkscape:pageopacity="0"
     inkscape:pageshadow="2"
     inkscape:window-width="1280"
     inkscape:window-height="763"
     id="namedview7"
     showgrid="false"
     inkscape:zoom="3.53"
     inkscape:cx="2.9103225"
     inkscape:cy="34.346527"
     inkscape:window-x="0"
     inkscape:window-y="22"
     inkscape:window-maximized="0"
     inkscape:current-layer="Layer_1"
     fit-margin-top="0"
     fit-margin-left="0"
     fit-margin-right="0"
     fit-margin-bottom="0" /><polygon
     points="0,64 100,64 100,9.465 50.001,45.022 50.001,45.023 50,45.022 0,9.464 "
     id="polygon3"
     transform="translate(2.3437502,0.68334765)" /><polygon
     points="99.497,0 0.504,0 50,35.097 "
     id="polygon5"
     transform="translate(2.3437502,0.68334765)" /><path
     style="fill:#ffff00;fill-opacity:1;stroke:#000000;stroke-width:0.28328612;stroke-miterlimit:4;stroke-opacity:1;stroke-dasharray:none"
     d="M 27.663404,18.148701 3.2663439,0.81365925 27.898287,0.74127755 c 13.547568,-0.03981 35.632837,-0.03981 49.07837,0 L 101.42308,0.81365925 77.061458,18.094112 C 63.662563,27.598361 52.555974,35.399129 52.380147,35.429154 52.204322,35.459177 41.081787,27.682974 27.663404,18.148701 l 0,0 z"
     id="path3858"
     inkscape:connector-curvature="0" /><path
     style="fill:#ffff00;fill-opacity:1;stroke:#000000;stroke-width:2;stroke-miterlimit:4;stroke-opacity:1;stroke-dasharray:none"
     d="m 2.3437502,37.503026 0,-27.191652 3.4852241,2.474938 c 1.9168739,1.361216 13.0736567,9.295052 24.7928517,17.630746 11.719196,8.335694 21.49406,15.155807 21.721924,15.155807 0.227864,0 10.002728,-6.820113 21.721924,-15.155807 C 85.784869,22.081364 96.94165,14.147528 98.85853,12.786312 l 3.48522,-2.474938 0,27.191652 0,27.191652 -50,0 -49.9999998,0 0,-27.191652 z"
     id="path3868"
     inkscape:connector-curvature="0" /><path
     style="fill:#ffff00;fill-opacity:1;stroke:#000000;stroke-width:2;stroke-miterlimit:4;stroke-opacity:1;stroke-dasharray:none"
     d="M 45.828169,30.612177 C 39.789002,26.405837 29.83225,19.369263 12.48196,7.0459538 L 4.1062063,1.0969453 28.318198,1.0245374 c 13.316594,-0.039824 35.023662,-0.039824 48.237929,0 L 100.58206,1.0969454 90.202283,8.4574639 C 69.388135,23.21721 52.900351,34.756084 52.485393,34.853389 52.251682,34.908199 49.255931,32.99965 45.828169,30.612177 z"
     id="path3872"
     inkscape:connector-curvature="0" /><path
     style="fill:#000000;fill-opacity:1;stroke:#000000;stroke-width:0.56657225;stroke-miterlimit:4;stroke-opacity:1;stroke-dasharray:none"
     d="m 3.4768947,38.046495 0,-25.515041 0.9206799,0.641835 c 0.5063739,0.353009 6.1473084,4.354578 12.5354104,8.892375 23.800261,16.906551 35.053408,24.781991 35.410765,24.781991 0.357357,0 11.610504,-7.87544 35.410765,-24.781991 6.388102,-4.537797 12.029035,-8.539366 12.535415,-8.892375 l 0.92068,-0.641835 0,25.515041 0,25.515041 -48.86686,0 -48.8668553,0 0,-25.515041 z"
     id="path3874"
     inkscape:connector-curvature="0" /><path
     style="fill:#000000;fill-opacity:1;stroke:#000000;stroke-width:0.56657225;stroke-miterlimit:4;stroke-opacity:1;stroke-dasharray:none"
     d="M 50.042988,32.081522 C 48.815489,31.283097 38.766215,24.239895 27.711264,16.429964 L 7.6113552,2.2300912 30.070676,2.1575588 c 12.352626,-0.039893 32.479422,-0.039893 44.726213,0 L 97.06378,2.2300912 78.953056,14.999194 c -16.985465,11.97573 -26.395399,18.534013 -26.592918,18.534013 -0.04693,0 -1.089654,-0.653258 -2.31715,-1.451685 z"
     id="path3876"
     inkscape:connector-curvature="0" /><path
     style="fill:#fffc13;fill-opacity:1;stroke:#000000;stroke-width:2.91988134;stroke-miterlimit:4;stroke-opacity:1;stroke-dasharray:none"
     d="M 50.156297,35.651077 C 47.821688,34.109758 41.009248,29.048262 15.697546,10.04897 L 4.4730121,1.62369 28.637879,1.5511951 c 13.290677,-0.039873 34.954914,-0.039873 48.142748,0 l 23.977883,0.072495 -4.118414,3.1015653 C 75.126891,20.926807 53.67973,36.833922 52.94656,37.132259 c -0.186044,0.0757 -1.44166,-0.590827 -2.790263,-1.481182 z"
     id="path3878"
     inkscape:connector-curvature="0" /><path
     style="fill:#fffc13;fill-opacity:1;stroke:#000000;stroke-width:3;stroke-miterlimit:4;stroke-opacity:1;stroke-dasharray:none"
     d="m 1.4938919,37.215927 c 0,-15.580737 0.07851,-28.3286118 0.1744674,-28.3286118 0.095957,0 7.1391579,4.9533408 15.6515577,11.0074248 20.653278,14.68877 28.606626,20.298787 32.110077,22.649348 l 2.918852,1.958337 2.122099,-1.418558 c 3.148695,-2.104807 13.439,-9.357539 31.905219,-22.487181 9.057773,-6.440154 16.547146,-11.7093708 16.643056,-11.7093708 0.0959,0 0.17439,12.7478748 0.17439,28.3286118 l 0,28.328612 -50.84986,0 -50.8498581,0 0,-28.328612 z"
     id="path3880"
     inkscape:connector-curvature="0" /></svg>