<svg xmlns="http://www.w3.org/2000/svg" xmlns:xlink="http://www.w3.org/1999/xlink" version="1.1" id="Layer_1" x="0px" y="0px" width="100px" height="100px" viewBox="-0.5 -9.499 100 100" enable-background="new -0.5 -9.499 100 100" xml:space="preserve">
<g>
	<path d="M400.495,40.333c0-0.037-0.008-0.073-0.01-0.112c0-0.017-0.002-0.033-0.002-0.053c-0.006-0.028-0.01-0.054-0.014-0.081   c-0.005-0.034-0.008-0.065-0.017-0.092v-0.012c-0.108-0.696-0.437-1.348-0.938-1.852c-2.873-3.404-6.285-6.431-9.76-9.197   c-7.479-5.958-16.036-10.945-25.479-12.95c-5.457-1.161-10.944-1.211-16.434-0.232c-4.989,0.896-9.801,2.752-14.304,5.055   c-7.044,3.6-13.48,8.563-19.084,14.127c-1.038,1.03-2.068,2.081-3.012,3.2c-1.256,1.49-1.256,3.247,0,4.741   c2.869,3.399,6.283,6.431,9.757,9.194c7.483,5.957,16.034,10.945,25.477,12.953c5.46,1.158,10.952,1.209,16.436,0.229   c4.994-0.896,9.799-2.75,14.303-5.051c7.047-3.603,13.48-8.562,19.091-14.126c1.034-1.031,2.067-2.081,3.011-3.201   c0.504-0.504,0.83-1.156,0.938-1.854l0.006-0.006c0.003-0.033,0.006-0.063,0.011-0.097c0.004-0.025,0.014-0.054,0.014-0.079   c0.002-0.017,0.002-0.036,0.004-0.056c0-0.037,0.007-0.073,0.007-0.112c0-0.053,0.006-0.112,0.006-0.167   C400.5,40.448,400.495,40.389,400.495,40.333z M355.5,57.815c-9.562,0-17.314-7.748-17.314-17.314   c0-9.56,7.752-17.316,17.314-17.316c9.562,0,17.319,7.756,17.319,17.316C372.817,50.067,365.062,57.815,355.5,57.815z"/>
	<path d="M355.5,34.772c3.166,0,5.733,2.565,5.733,5.729c0,3.171-2.567,5.732-5.733,5.732c-3.168,0-5.732-2.562-5.732-5.732   C349.766,37.337,352.331,34.772,355.5,34.772z"/>
</g>
<g>
	<polygon points="76.738,68.87 76.738,74.302 8.286,74.302 8.286,5.851 76.738,5.851 76.738,12.18 84.019,16.387 84.019,-1.437    0.999,-1.437 0.999,81.583 84.019,81.583 84.019,64.663  "/>
	<polygon points="98.001,40.524 50.268,15.621 50.268,31.772 23.692,31.772 23.692,48.378 50.268,48.378 50.268,65.436  "/>
</g>
</svg>