<?xml version="1.0" encoding="UTF-8" standalone="no"?>
<svg
   xmlns:dc="http://purl.org/dc/elements/1.1/"
   xmlns:cc="http://creativecommons.org/ns#"
   xmlns:rdf="http://www.w3.org/1999/02/22-rdf-syntax-ns#"
   xmlns:svg="http://www.w3.org/2000/svg"
   xmlns="http://www.w3.org/2000/svg"
   xmlns:sodipodi="http://sodipodi.sourceforge.net/DTD/sodipodi-0.dtd"
   xmlns:inkscape="http://www.inkscape.org/namespaces/inkscape"
   version="1.1"
   id="Layer_1"
   x="0px"
   y="0px"
   width="100px"
   height="100px"
   viewBox="-0.5 -9.499 100 100"
   enable-background="new -0.5 -9.499 100 100"
   xml:space="preserve"
   inkscape:version="0.48.4 r9939"
   sodipodi:docname="out-link.svg"><metadata
     id="metadata19"><rdf:RDF><cc:Work
         rdf:about=""><dc:format>image/svg+xml</dc:format><dc:type
           rdf:resource="http://purl.org/dc/dcmitype/StillImage" /><dc:title></dc:title></cc:Work></rdf:RDF></metadata><defs
     id="defs17" /><sodipodi:namedview
     pagecolor="#ffffff"
     bordercolor="#666666"
     borderopacity="1"
     objecttolerance="10"
     gridtolerance="10"
     guidetolerance="10"
     inkscape:pageopacity="0"
     inkscape:pageshadow="2"
     inkscape:window-width="789"
     inkscape:window-height="776"
     id="namedview15"
     showgrid="false"
     inkscape:zoom="2.36"
     inkscape:cx="50"
     inkscape:cy="50"
     inkscape:window-x="0"
     inkscape:window-y="22"
     inkscape:window-maximized="0"
     inkscape:current-layer="Layer_1" /><g
     id="g3"><path
       d="M400.495,40.333c0-0.037-0.008-0.073-0.01-0.112c0-0.017-0.002-0.033-0.002-0.053c-0.006-0.028-0.01-0.054-0.014-0.081   c-0.005-0.034-0.008-0.065-0.017-0.092v-0.012c-0.108-0.696-0.437-1.348-0.938-1.852c-2.873-3.404-6.285-6.431-9.76-9.197   c-7.479-5.958-16.036-10.945-25.479-12.95c-5.457-1.161-10.944-1.211-16.434-0.232c-4.989,0.896-9.801,2.752-14.304,5.055   c-7.044,3.6-13.48,8.563-19.084,14.127c-1.038,1.03-2.068,2.081-3.012,3.2c-1.256,1.49-1.256,3.247,0,4.741   c2.869,3.399,6.283,6.431,9.757,9.194c7.483,5.957,16.034,10.945,25.477,12.953c5.46,1.158,10.952,1.209,16.436,0.229   c4.994-0.896,9.799-2.75,14.303-5.051c7.047-3.603,13.48-8.562,19.091-14.126c1.034-1.031,2.067-2.081,3.011-3.201   c0.504-0.504,0.83-1.156,0.938-1.854l0.006-0.006c0.003-0.033,0.006-0.063,0.011-0.097c0.004-0.025,0.014-0.054,0.014-0.079   c0.002-0.017,0.002-0.036,0.004-0.056c0-0.037,0.007-0.073,0.007-0.112c0-0.053,0.006-0.112,0.006-0.167   C400.5,40.448,400.495,40.389,400.495,40.333z M355.5,57.815c-9.562,0-17.314-7.748-17.314-17.314   c0-9.56,7.752-17.316,17.314-17.316c9.562,0,17.319,7.756,17.319,17.316C372.817,50.067,365.062,57.815,355.5,57.815z"
       id="path5" /><path
       d="M355.5,34.772c3.166,0,5.733,2.565,5.733,5.729c0,3.171-2.567,5.732-5.733,5.732c-3.168,0-5.732-2.562-5.732-5.732   C349.766,37.337,352.331,34.772,355.5,34.772z"
       id="path7" /></g><g
     id="g9"><polygon
       points="76.738,68.87 76.738,74.302 8.286,74.302 8.286,5.851 76.738,5.851 76.738,12.18 84.019,16.387 84.019,-1.437    0.999,-1.437 0.999,81.583 84.019,81.583 84.019,64.663  "
       id="polygon11" /><polygon
       points="98.001,40.524 50.268,15.621 50.268,31.772 23.692,31.772 23.692,48.378 50.268,48.378 50.268,65.436  "
       id="polygon13" /></g><path
     style="fill:#ff0000;fill-opacity:1;stroke:#000000;stroke-width:1.69491529;stroke-miterlimit:4;stroke-opacity:1;stroke-dasharray:none"
     d="m 51.101695,66.179378 0,-8.298022 -13.347458,0 -13.347457,0 0,-8.262712 0,-8.262712 13.347457,0 13.347458,0 0,-7.874293 c 0,-4.46525 0.164438,-7.813146 0.379822,-7.733051 0.673307,0.25038 46.603631,24.274413 46.521504,24.33325 -0.186305,0.133469 -46.237556,24.126306 -46.553135,24.254319 -0.191505,0.07769 -0.348191,-3.592865 -0.348191,-8.156779 z"
     id="path3109"
     inkscape:connector-curvature="0"
     transform="translate(-0.5,-9.499)" /><path
     style="fill:#ff0000;fill-opacity:1;stroke:#000000;stroke-width:1.69491529;stroke-miterlimit:4;stroke-opacity:1;stroke-dasharray:none"
     d="m 1.5254237,49.618644 0,-41.3135593 41.3135593,0 41.313559,0 0,8.4745763 c 0,4.661017 -0.143008,8.460583 -0.317796,8.443481 -0.174788,-0.0171 -1.652543,-0.835024 -3.283899,-1.817603 l -2.966101,-1.786508 -0.123754,-3.267142 -0.123759,-3.267143 -34.304209,0 -34.3042104,0 0,34.533898 0,34.533898 34.3220334,0 34.322034,0 0.003,-2.860169 0.003,-2.86017 3.066652,-1.694915 c 1.686657,-0.932203 3.210805,-1.758474 3.386996,-1.836157 0.176186,-0.07769 0.320343,3.497526 0.320343,7.944916 l -2.63e-4,8.086156 -41.313559,0 -41.3135593,0 0,-41.313559 z"
     id="path3111"
     inkscape:connector-curvature="0"
     transform="translate(-0.5,-9.499)" /></svg>