<?xml version="1.0" encoding="UTF-8" standalone="no"?>
<svg
   xmlns:dc="http://purl.org/dc/elements/1.1/"
   xmlns:cc="http://creativecommons.org/ns#"
   xmlns:rdf="http://www.w3.org/1999/02/22-rdf-syntax-ns#"
   xmlns:svg="http://www.w3.org/2000/svg"
   xmlns="http://www.w3.org/2000/svg"
   xmlns:sodipodi="http://sodipodi.sourceforge.net/DTD/sodipodi-0.dtd"
   xmlns:inkscape="http://www.inkscape.org/namespaces/inkscape"
   version="1.1"
   id="Your_Icon"
   x="0px"
   y="0px"
   width="100px"
   height="100px"
   viewBox="0 0 100 100"
   enable-background="new 0 0 100 100"
   xml:space="preserve"
   inkscape:version="0.48.4 r9939"
   sodipodi:docname="sms.svg"><metadata
     id="metadata19"><rdf:RDF><cc:Work
         rdf:about=""><dc:format>image/svg+xml</dc:format><dc:type
           rdf:resource="http://purl.org/dc/dcmitype/StillImage" /><dc:title></dc:title></cc:Work></rdf:RDF></metadata><defs
     id="defs17" /><sodipodi:namedview
     pagecolor="#ffffff"
     bordercolor="#666666"
     borderopacity="1"
     objecttolerance="10"
     gridtolerance="10"
     guidetolerance="10"
     inkscape:pageopacity="0"
     inkscape:pageshadow="2"
     inkscape:window-width="1280"
     inkscape:window-height="778"
     id="namedview15"
     showgrid="false"
     inkscape:zoom="2.36"
     inkscape:cx="-23.940678"
     inkscape:cy="50"
     inkscape:window-x="0"
     inkscape:window-y="22"
     inkscape:window-maximized="0"
     inkscape:current-layer="Your_Icon" /><g
     id="g3"><g
       id="g5"><path
         d="M39.046,6.532c1.924-0.454,4.054,0.86,4.486,2.794c0.476,2.187,0.963,4.372,1.424,6.561    c0.072,0.202-0.129,0.335-0.238,0.472c-0.707,0.732-1.346,1.526-1.986,2.316c-0.363-1.407-0.633-2.842-0.944-4.264    c-0.479,0.053-0.945,0.18-1.416,0.277c-10.513,2.229-21.024,4.465-31.539,6.69c-1.674,0.376-3.366,0.686-5.028,1.103    c0.023,0.302,0.099,0.595,0.167,0.89c2.934,13.458,5.871,26.916,8.804,40.375c1.876,8.538,3.707,17.088,5.605,25.621    c1.544-0.255,3.064-0.644,4.598-0.948c11.125-2.358,22.244-4.732,33.373-7.072c-0.754-3.674-1.613-7.328-2.373-11.001    c0.87-0.386,1.736-0.781,2.607-1.166c1.35,6.197,2.7,12.395,4.055,18.591c0.235,1.012,0,2.105-0.594,2.953    c-0.543,0.81-1.424,1.357-2.366,1.571c-11.944,2.534-23.887,5.066-35.83,7.602c-0.935,0.21-1.947,0.107-2.789-0.361    c-0.985-0.514-1.694-1.492-1.922-2.572C11.479,70.972,5.809,44.985,0.147,18.994c-0.203-0.819-0.221-1.71,0.11-2.501    c0.455-1.17,1.526-2.083,2.764-2.316C15.03,11.629,27.039,9.079,39.046,6.532z M28.234,11.647    c-2.668,0.575-5.339,1.135-8.007,1.704c-0.627,0.119-1.131,0.739-1.07,1.385c-0.008,0.816,0.854,1.461,1.639,1.278    c2.67-0.549,5.334-1.132,8.004-1.688c0.348-0.068,0.694-0.209,0.929-0.484c0.393-0.42,0.43-1.093,0.146-1.582    C29.556,11.694,28.843,11.466,28.234,11.647z M14.709,14.526c-0.511,0.141-0.917,0.601-0.979,1.127    c-0.103,0.722,0.448,1.451,1.174,1.529c0.849,0.155,1.709-0.634,1.577-1.497C16.425,14.849,15.494,14.265,14.709,14.526z     M37.943,88.053c-1.245,0.232-2.234,1.424-2.179,2.698c-0.026,1.48,1.351,2.788,2.826,2.699c1.559,0.027,2.943-1.489,2.692-3.046    C41.151,88.838,39.458,87.655,37.943,88.053z"
         id="path7" /></g></g><g
     id="g9"><g
       id="g11"><path
         d="M66.254,7.759c5.148-0.464,10.415,0.347,15.166,2.388c3.787,1.63,7.246,4.021,10.104,6.992    c3.2,3.32,5.631,7.376,7.042,11.768c2.501,7.733,1.709,16.476-2.208,23.607c-3.473,6.429-9.327,11.523-16.167,14.093    c-6.329,2.409-13.439,2.667-19.936,0.765c-0.886-0.228-1.724-0.61-2.604-0.844c-3.34,1.743-6.918,3.003-10.561,3.952    c-0.767,0.165-1.556,0.386-2.344,0.254c-0.203-0.023-0.347-0.232-0.31-0.431c0.092-0.465,0.407-0.839,0.681-1.21    c1.214-1.526,2.598-2.936,3.573-4.637c0.447-0.788,0.813-1.666,0.785-2.589c0.024-0.172-0.145-0.263-0.248-0.363    c-3.476-2.872-6.318-6.514-8.223-10.604c-2.146-4.593-3.118-9.736-2.757-14.795c0.36-5.683,2.393-11.242,5.767-15.827    c2.717-3.709,6.28-6.792,10.33-8.967C58.021,9.338,62.101,8.123,66.254,7.759z M52.653,27.791    c-0.026,1.436-0.021,2.875-0.003,4.312c10.833,0.038,21.668,0,32.501,0.019c0.18-0.009,0.374,0.025,0.545-0.058    c-0.005-1.42-0.003-2.839,0-4.259c-4.304-0.035-8.605-0.006-12.909-0.015C66.076,27.789,59.365,27.785,52.653,27.791z     M52.65,36.529c-0.017,1.438-0.023,2.875,0.003,4.312c11.014-0.003,22.03,0.02,33.043-0.013c-0.005-1.418-0.003-2.838,0-4.257    c-0.167-0.088-0.365-0.051-0.545-0.06C74.318,36.529,63.483,36.491,52.65,36.529z M52.654,45.226    c-0.026,1.433-0.025,2.867-0.001,4.299c9.561,0.02,19.122,0.003,28.683,0.008c1.452-0.021,2.908,0.043,4.359-0.031    c-0.002-1.419-0.002-2.84,0-4.26c-1.451-0.056-2.907-0.006-4.359-0.023C71.775,45.224,62.214,45.208,52.654,45.226z"
         id="path13" /></g></g><path
     style="fill:#ce0000;fill-opacity:1;stroke:none;stroke-width:0.51864403000000003;stroke-miterlimit:4;stroke-opacity:1;stroke-dasharray:none"
     d="m 45.000131,69.78903 c 0.186369,-0.302471 1.156664,-1.616716 2.156213,-2.920543 0.999548,-1.303826 1.988429,-2.967076 2.197513,-3.69611 0.354615,-1.23647 0.224163,-1.485288 -1.941952,-3.703958 -2.949203,-3.020758 -4.555881,-5.362733 -6.299555,-9.18255 -2.05257,-4.496508 -2.560322,-7.054804 -2.495597,-12.574005 0.0838,-7.146115 1.796637,-12.139757 6.154115,-17.941874 5.642674,-7.513395 14.445665,-11.7191425 24.529173,-11.7191425 21.310167,0 36.066849,21.2042915 28.434925,40.8589405 -2.338385,6.022085 -7.360856,11.974449 -12.817017,15.190038 -6.595174,3.886865 -15.673155,5.15289 -23.47436,3.273759 l -4.001786,-0.963941 -2.23785,0.964716 c -5.860892,2.526581 -11.025867,3.748839 -10.203822,2.41467 l 0,0 z m 40.804954,-22.543267 0,-2.330509 -16.737288,0 -16.737289,0 0,2.330509 0,2.330508 16.737289,0 16.737288,0 0,-2.330508 z m 0,-8.474577 0,-2.330508 -16.737288,0 -16.737289,0 0,2.330508 0,2.330509 16.737289,0 16.737288,0 0,-2.330509 z m 0,-8.898305 0,-2.330508 -16.737288,0 -16.737289,0 0,2.330508 0,2.330509 16.737289,0 16.737288,0 0,-2.330509 z"
     id="path3772"
     inkscape:connector-curvature="0" /><path
     style="fill:#ce0000;fill-opacity:1;stroke:none"
     d="M 18.527971,98.727089 C 18.026652,98.260042 17.432275,97.163644 17.207133,96.290648 16.981992,95.417657 13.041088,77.416072 8.4495712,56.287123 3.0352222,31.371727 0.19759686,17.487413 0.37520305,16.779773 0.52581801,16.179675 1.0750464,15.413119 1.5957106,15.076316 2.6102056,14.420066 37.985332,6.779661 40.009278,6.779661 c 2.365391,0 3.191692,1.4578083 4.474921,7.894914 0.206352,1.035112 0.03966,1.588559 -0.757504,2.515337 l -1.022064,1.18822 -0.297771,-1.985676 C 42.191822,14.958472 41.916614,14.40678 41.416316,14.40678 40.304,14.40678 4.2684381,22.098304 3.9311525,22.407711 3.662372,22.654275 17.861066,88.904856 18.28456,89.380178 c 0.205931,0.231136 37.538665,-7.615928 37.940084,-7.974725 0.160843,-0.143762 -0.234797,-2.677135 -0.879195,-5.62972 l -1.171635,-5.36833 1.039885,-0.473806 c 0.571932,-0.260589 1.099106,-0.41458 1.171487,-0.342194 0.286572,0.286567 3.99617,17.960682 3.99617,19.039449 0,0.633822 -0.429025,1.640017 -0.95339,2.235995 -0.866254,0.984564 -2.596966,1.432081 -18.936557,4.896513 -9.890742,2.097102 -18.673643,3.812911 -19.517558,3.812911 -0.949731,0 -1.881704,-0.323568 -2.44588,-0.849182 z M 40.466102,92.79661 c 1.86908,-1.86908 0.700098,-4.830508 -1.90678,-4.830508 -1.875391,0 -2.754237,0.951101 -2.754237,2.98069 0,2.4202 2.928429,3.582407 4.661017,1.849818 z M 16.343037,16.70177 c 0.403762,-0.486504 0.43468,-0.865317 0.112399,-1.377119 -0.631923,-1.003527 -1.898753,-1.138425 -2.533892,-0.26982 -1.176121,1.608441 1.143888,3.186358 2.421493,1.646939 z m 10.312802,-1.766102 c 3.288142,-0.832141 4.283545,-1.762627 3.124989,-2.921185 -0.668558,-0.668557 -1.008281,-0.651377 -5.417946,0.273973 -3.53284,0.741352 -4.811903,1.187633 -5.135211,1.791739 -0.307838,0.5752 -0.276448,0.990163 0.110135,1.455968 0.625955,0.754228 2.607427,0.591634 7.318033,-0.600495 z"
     id="path3774"
     inkscape:connector-curvature="0" /></svg>