<?xml version="1.0" encoding="UTF-8" standalone="no"?>
<svg
   xmlns:dc="http://purl.org/dc/elements/1.1/"
   xmlns:cc="http://creativecommons.org/ns#"
   xmlns:rdf="http://www.w3.org/1999/02/22-rdf-syntax-ns#"
   xmlns:svg="http://www.w3.org/2000/svg"
   xmlns="http://www.w3.org/2000/svg"
   xmlns:sodipodi="http://sodipodi.sourceforge.net/DTD/sodipodi-0.dtd"
   xmlns:inkscape="http://www.inkscape.org/namespaces/inkscape"
   version="1.1"
   id="Your_Icon"
   x="0px"
   y="0px"
   width="100px"
   height="100px"
   viewBox="0 0 100 100"
   enable-background="new 0 0 100 100"
   xml:space="preserve"
   inkscape:version="0.48.4 r9939"
   sodipodi:docname="sms.svg"><metadata
     id="metadata3858"><rdf:RDF><cc:Work
         rdf:about=""><dc:format>image/svg+xml</dc:format><dc:type
           rdf:resource="http://purl.org/dc/dcmitype/StillImage" /><dc:title></dc:title></cc:Work></rdf:RDF></metadata><defs
     id="defs3856" /><sodipodi:namedview
     pagecolor="#ffffff"
     bordercolor="#666666"
     borderopacity="1"
     objecttolerance="10"
     gridtolerance="10"
     guidetolerance="10"
     inkscape:pageopacity="0"
     inkscape:pageshadow="2"
     inkscape:window-width="789"
     inkscape:window-height="776"
     id="namedview3854"
     showgrid="false"
     inkscape:zoom="2.36"
     inkscape:cx="50"
     inkscape:cy="50"
     inkscape:window-x="0"
     inkscape:window-y="22"
     inkscape:window-maximized="0"
     inkscape:current-layer="Your_Icon" /><g
     id="g3842"><g
       id="g3844"><path
         d="M39.046,6.532c1.924-0.454,4.054,0.86,4.486,2.794c0.476,2.187,0.963,4.372,1.424,6.561    c0.072,0.202-0.129,0.335-0.238,0.472c-0.707,0.732-1.346,1.526-1.986,2.316c-0.363-1.407-0.633-2.842-0.944-4.264    c-0.479,0.053-0.945,0.18-1.416,0.277c-10.513,2.229-21.024,4.465-31.539,6.69c-1.674,0.376-3.366,0.686-5.028,1.103    c0.023,0.302,0.099,0.595,0.167,0.89c2.934,13.458,5.871,26.916,8.804,40.375c1.876,8.538,3.707,17.088,5.605,25.621    c1.544-0.255,3.064-0.644,4.598-0.948c11.125-2.358,22.244-4.732,33.373-7.072c-0.754-3.674-1.613-7.328-2.373-11.001    c0.87-0.386,1.736-0.781,2.607-1.166c1.35,6.197,2.7,12.395,4.055,18.591c0.235,1.012,0,2.105-0.594,2.953    c-0.543,0.81-1.424,1.357-2.366,1.571c-11.944,2.534-23.887,5.066-35.83,7.602c-0.935,0.21-1.947,0.107-2.789-0.361    c-0.985-0.514-1.694-1.492-1.922-2.572C11.479,70.972,5.809,44.985,0.147,18.994c-0.203-0.819-0.221-1.71,0.11-2.501    c0.455-1.17,1.526-2.083,2.764-2.316C15.03,11.629,27.039,9.079,39.046,6.532z M28.234,11.647    c-2.668,0.575-5.339,1.135-8.007,1.704c-0.627,0.119-1.131,0.739-1.07,1.385c-0.008,0.816,0.854,1.461,1.639,1.278    c2.67-0.549,5.334-1.132,8.004-1.688c0.348-0.068,0.694-0.209,0.929-0.484c0.393-0.42,0.43-1.093,0.146-1.582    C29.556,11.694,28.843,11.466,28.234,11.647z M14.709,14.526c-0.511,0.141-0.917,0.601-0.979,1.127    c-0.103,0.722,0.448,1.451,1.174,1.529c0.849,0.155,1.709-0.634,1.577-1.497C16.425,14.849,15.494,14.265,14.709,14.526z     M37.943,88.053c-1.245,0.232-2.234,1.424-2.179,2.698c-0.026,1.48,1.351,2.788,2.826,2.699c1.559,0.027,2.943-1.489,2.692-3.046    C41.151,88.838,39.458,87.655,37.943,88.053z"
         id="path3846" /></g></g><g
     id="g3848"><g
       id="g3850"><path
         d="M66.254,7.759c5.148-0.464,10.415,0.347,15.166,2.388c3.787,1.63,7.246,4.021,10.104,6.992    c3.2,3.32,5.631,7.376,7.042,11.768c2.501,7.733,1.709,16.476-2.208,23.607c-3.473,6.429-9.327,11.523-16.167,14.093    c-6.329,2.409-13.439,2.667-19.936,0.765c-0.886-0.228-1.724-0.61-2.604-0.844c-3.34,1.743-6.918,3.003-10.561,3.952    c-0.767,0.165-1.556,0.386-2.344,0.254c-0.203-0.023-0.347-0.232-0.31-0.431c0.092-0.465,0.407-0.839,0.681-1.21    c1.214-1.526,2.598-2.936,3.573-4.637c0.447-0.788,0.813-1.666,0.785-2.589c0.024-0.172-0.145-0.263-0.248-0.363    c-3.476-2.872-6.318-6.514-8.223-10.604c-2.146-4.593-3.118-9.736-2.757-14.795c0.36-5.683,2.393-11.242,5.767-15.827    c2.717-3.709,6.28-6.792,10.33-8.967C58.021,9.338,62.101,8.123,66.254,7.759z M52.653,27.791    c-0.026,1.436-0.021,2.875-0.003,4.312c10.833,0.038,21.668,0,32.501,0.019c0.18-0.009,0.374,0.025,0.545-0.058    c-0.005-1.42-0.003-2.839,0-4.259c-4.304-0.035-8.605-0.006-12.909-0.015C66.076,27.789,59.365,27.785,52.653,27.791z     M52.65,36.529c-0.017,1.438-0.023,2.875,0.003,4.312c11.014-0.003,22.03,0.02,33.043-0.013c-0.005-1.418-0.003-2.838,0-4.257    c-0.167-0.088-0.365-0.051-0.545-0.06C74.318,36.529,63.483,36.491,52.65,36.529z M52.654,45.226    c-0.026,1.433-0.025,2.867-0.001,4.299c9.561,0.02,19.122,0.003,28.683,0.008c1.452-0.021,2.908,0.043,4.359-0.031    c-0.002-1.419-0.002-2.84,0-4.26c-1.451-0.056-2.907-0.006-4.359-0.023C71.775,45.224,62.214,45.208,52.654,45.226z"
         id="path3852" /></g></g><path
     style="fill:#ffff00;fill-opacity:1;stroke:none"
     d="m 44.745763,70.184237 c 0,-0.224945 0.53652,-1.035326 1.192266,-1.800847 1.890713,-2.207237 3.077075,-4.051593 3.455992,-5.372801 0.314007,-1.094877 0.150484,-1.417174 -1.557804,-3.070331 -3.985513,-3.856881 -6.514244,-8.004949 -8.23609,-13.510268 -0.82818,-2.647971 -0.985166,-4.03571 -0.957463,-8.463888 0.03796,-6.067663 0.938903,-9.564103 3.785046,-14.689259 2.114778,-3.808162 7.549446,-9.242829 11.357607,-11.357608 5.234321,-2.9067641 8.609437,-3.7656824 14.901124,-3.7921209 6.489467,-0.027269 9.313407,0.5942956 14.505923,3.1928369 5.421933,2.713348 10.60981,7.885623 13.367128,13.326935 2.29958,4.537997 3.0625,8.01164 3.018377,13.742945 -0.0347,4.506014 -0.207,5.802591 -1.154411,8.68644 -1.556632,4.738276 -3.788674,8.345009 -7.491255,12.105047 -3.722042,3.779805 -7.207432,5.926601 -12.493535,7.695288 -3.433727,1.148898 -4.35564,1.278402 -9.116634,1.28064 -4.041485,0.0017 -6.072757,-0.206606 -8.571939,-0.879886 l -3.275328,-0.882373 -2.445011,1.087865 c -2.527325,1.124495 -8.735213,3.110368 -9.723072,3.110368 -0.308506,0 -0.560921,-0.184042 -0.560921,-0.408983 z M 85.847458,47.5 l 0,-2.330508 -16.737289,0 -16.737288,0 0,2.330508 0,2.330508 16.737288,0 16.737289,0 0,-2.330508 z m 0,-8.898305 0,-2.330509 -16.737289,0 -16.737288,0 0,2.330509 0,2.330508 16.737288,0 16.737289,0 0,-2.330508 z m 0,-8.474576 0,-2.330509 -16.737289,0 -16.737288,0 0,2.330509 0,2.330508 16.737288,0 16.737289,0 0,-2.330508 z"
     id="path3860"
     inkscape:connector-curvature="0" /><path
     style="fill:#ffff00;fill-opacity:1;stroke:none"
     d="M 18.663379,98.858831 C 17.599146,97.943419 17.033787,95.594203 8.8993686,58.286797 4.1504661,36.506601 0.26257852,18.195314 0.25961873,17.595048 0.24707432,15.050956 0.96237767,14.807405 20.915142,10.562125 31.108848,8.3932456 39.797506,6.6167869 40.223272,6.6144388 c 1.633991,-0.00901 3.037923,2.1459886 3.833444,5.8842452 l 0.757165,3.558006 -1.058245,1.058245 -1.058246,1.058246 -0.29511,-1.967947 c -0.162314,-1.08237 -0.431276,-1.967946 -0.597695,-1.967946 -0.349327,0 -28.376353,5.928509 -34.2762189,7.250391 -3.6383246,0.815177 -3.9378856,0.958902 -3.7446843,1.796647 0.1155004,0.500824 3.3999635,15.592793 7.2988072,33.537708 3.898844,17.944915 7.111816,32.661339 7.139937,32.703161 0.05869,0.08728 38.130879,-7.947674 38.262574,-8.075131 0.04768,-0.04615 -0.446932,-2.518306 -1.09914,-5.493683 l -1.185839,-5.409775 1.12486,-0.581687 1.124861,-0.581686 2.063216,9.519153 c 2.225559,10.268165 2.238991,11.045207 0.215856,12.485559 -0.942145,0.67075 -36.148181,8.449657 -38.217897,8.44439 -0.394843,-8.48e-4 -1.226236,-0.439081 -1.847538,-0.973504 l 0,0 z m 21.917663,-6.085522 c 0.965523,-0.873784 1.004414,-3.003805 0.07362,-4.032317 -1.598527,-1.766352 -4.913141,-0.431 -4.913141,1.979347 0,2.368445 3.057657,3.665534 4.839517,2.05297 z M 16.520943,16.537101 c 0.325925,-0.849348 -0.436561,-2.299813 -1.208975,-2.299813 -0.619826,0 -1.922137,1.111449 -1.922137,1.640436 0,1.239809 2.690925,1.806487 3.131112,0.659377 l 0,0 z m 8.52143,-1.233512 c 1.864407,-0.385682 3.705902,-0.790637 4.092211,-0.8999 1.299959,-0.367679 1.415558,-2.374476 0.164435,-2.854577 -0.875638,-0.336014 -9.624525,1.69569 -10.025303,2.328119 -0.199339,0.314557 -0.365354,0.800794 -0.368922,1.080527 -0.0085,0.662756 1.299606,1.409803 2.112155,1.206274 0.349576,-0.08756 2.161017,-0.474762 4.025424,-0.860443 l 0,0 z"
     id="path3862"
     inkscape:connector-curvature="0" /></svg>